<svg width="48.000000" height="48.000000" viewBox="0 0 48 48" fill="none" xmlns="http://www.w3.org/2000/svg" xmlns:xlink="http://www.w3.org/1999/xlink">
	<desc>
			Created with Pixso.
	</desc>
	<defs>
		<clipPath id="clip1_17">
			<rect id="Frame" width="48.000000" height="48.000000" fill="white" fill-opacity="0"/>
		</clipPath>
	</defs>
	<g clip-path="url(#clip1_17)">
		<path id="Vector" d="M1.03 25.74C-2.61 12.62 3.68 0 14.7 0C20.8 0 23.4 3.5 30.1 11.66C36.8 19.82 46.35 8.47 48 25.74C46.61 41.66 29.34 56.06 21.33 42.77C14.03 30.67 4.66 38.86 1.03 25.74L1.03 25.74Z" fill="#FFDD76" fill-opacity="1.000000" fill-rule="nonzero"/>
		<path id="Vector" d="M12.72 33L35.28 33C35.68 33 36 32.68 36 32.26L36 29.08C35.99 28.92 35.94 28.77 35.85 28.64C35.75 28.51 35.62 28.41 35.47 28.37L34.8 28.17C34.68 28.14 34.6 28.02 34.6 27.9L34.6 24.64C34.6 20.55 32.32 16.79 28.77 14.97L28.77 14.74C28.77 13.78 28 13 27.07 13L20.92 13C19.99 13 19.22 13.78 19.22 14.74L19.22 14.97C15.67 16.81 13.39 20.56 13.39 24.64L13.39 27.9C13.39 27.96 13.37 28.02 13.33 28.06C13.3 28.11 13.25 28.15 13.2 28.17L12.52 28.37C12.37 28.41 12.23 28.51 12.14 28.63C12.04 28.76 11.99 28.92 12 29.08L12 32.26C12 32.68 12.33 33 12.72 33ZM13.44 29.65L13.58 29.6C13.94 29.48 14.25 29.26 14.47 28.96C14.7 28.66 14.82 28.3 14.83 27.92L14.83 24.67C14.83 21.39 16.53 18.36 19.22 16.69L19.22 20.06C19.22 20.48 19.53 20.8 19.94 20.8C20.35 20.8 20.66 20.48 20.66 20.06L20.66 14.77C20.66 14.62 20.78 14.5 20.92 14.5L27.07 14.5C27.14 14.5 27.2 14.53 27.25 14.58C27.3 14.63 27.33 14.7 27.33 14.77L27.33 15.46C27.33 15.51 27.33 15.65 27.36 15.8L27.36 20.06C27.36 20.48 27.67 20.8 28.08 20.8C28.48 20.8 28.8 20.48 28.8 20.06L28.8 18.61C31.2 19.96 31.72 21.39 31.72 24.64L31.72 27.9C31.72 28.12 31.77 28.32 31.84 28.51L19.94 28.51C19.53 28.51 19.22 28.83 19.22 29.25C19.22 29.67 19.53 29.99 19.94 29.99L33.12 29.99L33.12 31.52L13.44 31.52L13.44 29.65Z" fill="#63522B" fill-opacity="1.000000" fill-rule="nonzero"/>
	</g>
</svg>
