<svg width="48.000000" height="48.000000" viewBox="0 0 48 48" fill="none" xmlns="http://www.w3.org/2000/svg" xmlns:xlink="http://www.w3.org/1999/xlink">
	<desc>
			Created with Pixso.
	</desc>
	<defs>
		<clipPath id="clip1_13">
			<rect id="Frame" width="48.000000" height="48.000000" fill="white" fill-opacity="0"/>
		</clipPath>
	</defs>
	<g clip-path="url(#clip1_13)">
		<path id="Vector" d="M46.96 25.74C50.6 12.62 44.31 0 33.29 0C27.19 0 24.59 3.5 17.89 11.66C11.2 19.82 1.64 8.47 0 25.74C1.38 41.66 18.65 56.06 26.66 42.77C33.96 30.67 43.33 38.86 46.96 25.74L46.96 25.74Z" fill="#FFDD76" fill-opacity="1.000000" fill-rule="nonzero"/>
		<path id="Vector" d="M32.75 12C32.43 12 32.18 12.25 32.18 12.57C32.18 12.9 32.43 13.15 32.75 13.15L33.28 13.15L26.86 19.64L21.16 13.9C21.11 13.84 21.05 13.8 20.98 13.77C20.91 13.74 20.84 13.72 20.76 13.72C20.69 13.72 20.61 13.74 20.54 13.77C20.48 13.8 20.41 13.84 20.36 13.9L14.07 20.16C14.02 20.21 13.98 20.27 13.95 20.34C13.92 20.41 13.9 20.48 13.9 20.56C13.9 20.63 13.92 20.71 13.95 20.78C13.98 20.85 14.02 20.91 14.07 20.96C14.12 21.02 14.19 21.06 14.25 21.09C14.32 21.12 14.4 21.14 14.47 21.14C14.55 21.14 14.62 21.12 14.69 21.09C14.76 21.06 14.82 21.02 14.87 20.96L20.76 15.11L26.46 20.85C26.69 21.08 27.05 21.08 27.26 20.85L34.1 13.95L34.1 14.49C34.1 14.82 34.35 15.07 34.67 15.07C35 15.07 35.25 14.82 35.25 14.49L35.25 12.57C35.25 12.46 35.21 12.34 35.15 12.25C35.08 12.15 34.99 12.08 34.88 12.03C34.82 12.01 34.74 12 34.67 12L34.65 12L32.75 12ZM31.05 21.4C30.98 21.4 30.9 21.42 30.83 21.44C30.76 21.47 30.7 21.52 30.64 21.57C30.59 21.62 30.55 21.69 30.52 21.76C30.49 21.83 30.48 21.9 30.48 21.98L30.48 35.42C30.48 35.75 30.73 36 31.05 36L34.48 36C34.81 36 35.05 35.75 35.05 35.42L35.05 21.98C35.06 21.9 35.04 21.83 35.01 21.76C34.99 21.69 34.94 21.62 34.89 21.57C34.84 21.52 34.77 21.47 34.7 21.45C34.63 21.42 34.56 21.4 34.48 21.4L31.05 21.4ZM12.55 21.9C12.47 21.9 12.4 21.92 12.33 21.95C12.26 21.98 12.19 22.02 12.14 22.08C12.09 22.14 12.05 22.2 12.03 22.27C12 22.34 11.99 22.42 12 22.5L12 22.57C12 22.88 12.26 23.13 12.59 23.13C12.91 23.13 13.16 22.86 13.14 22.54L13.14 22.46C13.14 22.13 12.87 21.9 12.55 21.9L12.55 21.9ZM18.86 23.32C18.78 23.32 18.71 23.34 18.64 23.37C18.57 23.39 18.5 23.44 18.45 23.49C18.4 23.54 18.35 23.61 18.33 23.68C18.3 23.75 18.28 23.82 18.29 23.9L18.29 35.42C18.29 35.75 18.53 36 18.86 36L22.29 36C22.61 36 22.86 35.75 22.86 35.42L22.86 23.9C22.86 23.82 22.85 23.75 22.82 23.68C22.79 23.61 22.75 23.54 22.69 23.49C22.64 23.44 22.58 23.39 22.51 23.37C22.44 23.34 22.36 23.32 22.29 23.32L18.86 23.32ZM19.43 24.48L21.72 24.48L21.72 34.84L19.43 34.84L19.43 24.48ZM24.95 27.16C24.88 27.16 24.8 27.18 24.73 27.21C24.66 27.23 24.6 27.28 24.55 27.33C24.49 27.38 24.45 27.45 24.42 27.52C24.4 27.59 24.38 27.66 24.38 27.74L24.38 35.42C24.38 35.75 24.63 36 24.95 36L28.38 36C28.71 36 28.96 35.75 28.96 35.42L28.96 27.74C28.96 27.66 28.94 27.59 28.92 27.52C28.89 27.45 28.85 27.38 28.79 27.33C28.74 27.28 28.68 27.23 28.61 27.21C28.54 27.18 28.46 27.16 28.39 27.16L24.95 27.16ZM25.53 28.31L27.81 28.31L27.81 34.84L25.53 34.84L25.53 28.31ZM12.76 29.08C12.68 29.08 12.61 29.1 12.54 29.13C12.47 29.15 12.4 29.2 12.35 29.25C12.3 29.3 12.26 29.37 12.23 29.44C12.2 29.51 12.19 29.58 12.19 29.66L12.19 35.42C12.19 35.75 12.43 36 12.76 36L16.19 36C16.51 36 16.76 35.75 16.76 35.42L16.76 29.66C16.76 29.58 16.75 29.51 16.72 29.44C16.69 29.37 16.65 29.3 16.6 29.25C16.54 29.2 16.48 29.15 16.41 29.12C16.34 29.1 16.26 29.08 16.19 29.08L12.76 29.08ZM13.33 30.24L15.62 30.24L15.62 34.84L13.33 34.84L13.33 30.24Z" fill="#63522B" fill-opacity="1.000000" fill-rule="nonzero"/>
	</g>
</svg>
